{
  "accessors": [
    {
      "bufferView": 2,
      "componentType": 5126,
      "count": 4509,
      "max": [
        51.347442626953125,
        431.4295654296875,
        44.614627838134766
      ],
      "min": [
        -51.28523254394531,
        -0.0021210000850260258,
        -44.627262115478516
      ],
      "type": "VEC3"
    },
    {
      "bufferView": 2,
      "byteOffset": 54108,
      "componentType": 5126,
      "count": 4509,
      "max": [
        0.9999794960021973,
        1.0,
        0.9999798536300659
      ],
      "min": [
        -0.9999794960021973,
        -0.9999971389770508,
        -0.9999798536300659
      ],
      "type": "VEC3"
    },
    {
      "bufferView": 3,
      "componentType": 5126,
      "count": 4509,
      "max": [
        0.9999985098838806,
        0.9994041323661804,
        0.9999985098838806,
        1.0
      ],
      "min": [
        -0.9999985098838806,
        -0.9996749758720398,
        -0.9999985098838806,
        1.0
      ],
      "type": "VEC4"
    },
    {
      "bufferView": 1,
      "componentType": 5126,
      "count": 4509,
      "max": [
        0.9975889921188354,
        0.9987710118293762
      ],
      "min": [
        0.0013559999642893672,
        0.001247999956831336
      ],
      "type": "VEC2"
    },
    {
      "bufferView": 0,
      "componentType": 5125,
      "count": 21816,
      "type": "SCALAR"
    },
    {
      "bufferView": 2,
      "byteOffset": 108216,
      "componentType": 5126,
      "count": 3472,
      "max": [
        30.376272201538086,
        401.06134033203125,
        30.338850021362305
      ],
      "min": [
        -30.314062118530273,
        76.79083251953125,
        -30.35148811340332
      ],
      "type": "VEC3"
    },
    {
      "bufferView": 2,
      "byteOffset": 149880,
      "componentType": 5126,
      "count": 3472,
      "max": [
        1.0,
        1.0,
        1.0
      ],
      "min": [
        -1.0,
        -1.0,
        -1.0
      ],
      "type": "VEC3"
    },
    {
      "bufferView": 3,
      "byteOffset": 72144,
      "componentType": 5126,
      "count": 3472,
      "max": [
        0.9999971389770508,
        0.9999530911445618,
        1.0,
        1.0
      ],
      "min": [
        -0.9999777674674988,
        -0.9999035000801086,
        -0.9999955892562866,
        1.0
      ],
      "type": "VEC4"
    },
    {
      "bufferView": 1,
      "byteOffset": 36072,
      "componentType": 5126,
      "count": 3472,
      "max": [
        0.9966279864311218,
        0.9980040192604065
      ],
      "min": [
        0.0009599999757483602,
        0.001996000064536929
      ],
      "type": "VEC2"
    },
    {
      "bufferView": 0,
      "byteOffset": 87264,
      "componentType": 5125,
      "count": 18792,
      "type": "SCALAR"
    }
  ],
  "asset": {
    "extras": {
      "author": "assetfactory (https://sketchfab.com/assetfactory)",
      "license": "SKETCHFAB Standard (https://sketchfab.com/licenses)",
      "source": "https://sketchfab.com/3d-models/greek-underwater-column-5-d6d71552d2cc4a17aa2d2f5fc1e49dca",
      "title": "Greek underwater column 5"
    },
    "generator": "Sketchfab-16.33.0",
    "version": "2.0"
  },
  "bufferViews": [
    {
      "buffer": 0,
      "byteLength": 162432,
      "name": "floatBufferViews",
      "target": 34963
    },
    {
      "buffer": 0,
      "byteLength": 63848,
      "byteOffset": 162432,
      "byteStride": 8,
      "name": "floatBufferViews",
      "target": 34962
    },
    {
      "buffer": 0,
      "byteLength": 191544,
      "byteOffset": 226280,
      "byteStride": 12,
      "name": "floatBufferViews",
      "target": 34962
    },
    {
      "buffer": 0,
      "byteLength": 127696,
      "byteOffset": 417824,
      "byteStride": 16,
      "name": "floatBufferViews",
      "target": 34962
    }
  ],
  "buffers": [
    {
      "byteLength": 545520,
      "uri": "scene.bin"
    }
  ],
  "images": [
    {
      "uri": "textures/Part_02_baseColor.jpeg"
    },
    {
      "uri": "textures/Part_02_metallicRoughness.png"
    },
    {
      "uri": "textures/Part_02_normal.png"
    },
    {
      "uri": "textures/Part_01_baseColor.jpeg"
    },
    {
      "uri": "textures/Part_01_metallicRoughness.png"
    },
    {
      "uri": "textures/Part_01_normal.png"
    }
  ],
  "materials": [
    {
      "doubleSided": true,
      "name": "Part_02",
      "normalTexture": {
        "index": 2
      },
      "occlusionTexture": {
        "index": 1
      },
      "pbrMetallicRoughness": {
        "baseColorTexture": {
          "index": 0
        },
        "metallicRoughnessTexture": {
          "index": 1
        }
      }
    },
    {
      "doubleSided": true,
      "name": "Part_01",
      "normalTexture": {
        "index": 5
      },
      "occlusionTexture": {
        "index": 4
      },
      "pbrMetallicRoughness": {
        "baseColorTexture": {
          "index": 3
        },
        "metallicRoughnessTexture": {
          "index": 4
        }
      }
    }
  ],
  "meshes": [
    {
      "name": "defaultMaterial",
      "primitives": [
        {
          "attributes": {
            "NORMAL": 1,
            "POSITION": 0,
            "TANGENT": 2,
            "TEXCOORD_0": 3
          },
          "indices": 4,
          "material": 0,
          "mode": 4
        }
      ]
    },
    {
      "name": "defaultMaterial",
      "primitives": [
        {
          "attributes": {
            "NORMAL": 6,
            "POSITION": 5,
            "TANGENT": 7,
            "TEXCOORD_0": 8
          },
          "indices": 9,
          "material": 1,
          "mode": 4
        }
      ]
    }
  ],
  "nodes": [
    {
      "children": [
        1
      ],
      "matrix": [
        1.0,
        0.0,
        0.0,
        0.0,
        0.0,
        2.220446049250313e-16,
        -1.0,
        0.0,
        0.0,
        1.0,
        2.220446049250313e-16,
        0.0,
        0.0,
        0.0,
        0.0,
        1.0
      ],
      "name": "Sketchfab_model"
    },
    {
      "children": [
        2
      ],
      "matrix": [
        1.0,
        0.0,
        0.0,
        0.0,
        0.0,
        -4.371139006309477e-08,
        0.999999999999999,
        0.0,
        0.0,
        -0.999999999999999,
        -4.371139006309477e-08,
        0.0,
        0.0,
        0.0,
        0.0,
        1.0
      ],
      "name": "Collada visual scene group"
    },
    {
      "children": [
        3,
        5
      ],
      "name": "mesh_low"
    },
    {
      "children": [
        4
      ],
      "name": "mesh_02_low"
    },
    {
      "mesh": 0,
      "name": "defaultMaterial"
    },
    {
      "children": [
        6
      ],
      "name": "mesh_01_low"
    },
    {
      "mesh": 1,
      "name": "defaultMaterial"
    }
  ],
  "samplers": [
    {
      "magFilter": 9729,
      "minFilter": 9987,
      "wrapS": 10497,
      "wrapT": 10497
    }
  ],
  "scene": 0,
  "scenes": [
    {
      "name": "Sketchfab_Scene",
      "nodes": [
        0
      ]
    }
  ],
  "textures": [
    {
      "sampler": 0,
      "source": 0
    },
    {
      "sampler": 0,
      "source": 1
    },
    {
      "sampler": 0,
      "source": 2
    },
    {
      "sampler": 0,
      "source": 3
    },
    {
      "sampler": 0,
      "source": 4
    },
    {
      "sampler": 0,
      "source": 5
    }
  ]
}
