{
  "accessors": [
    {
      "bufferView": 2,
      "componentType": 5126,
      "count": 65533,
      "max": [
        18.404159545898438,
        8.607072830200195,
        7.101210594177246
      ],
      "min": [
        -10.599570274353027,
        -12.46319580078125,
        -0.7221735119819641
      ],
      "type": "VEC3"
    },
    {
      "bufferView": 2,
      "byteOffset": 786396,
      "componentType": 5126,
      "count": 65533,
      "max": [
        0.9999670386314392,
        0.999998927116394,
        0.9999983310699463
      ],
      "min": [
        -0.9999980330467224,
        -0.9999890923500061,
        -0.9999667406082153
      ],
      "type": "VEC3"
    },
    {
      "bufferView": 1,
      "componentType": 5126,
      "count": 65533,
      "max": [
        0.9995637536048889,
        0.9997062683105469
      ],
      "min": [
        0.0002718862670008093,
        0.0011168643832206726
      ],
      "type": "VEC2"
    },
    {
      "bufferView": 1,
      "byteOffset": 524264,
      "componentType": 5126,
      "count": 65533,
      "max": [
        18.110122680664063,
        8.107358932495117
      ],
      "min": [
        -10.11407470703125,
        -11.776640892028809
      ],
      "type": "VEC2"
    },
    {
      "bufferView": 1,
      "byteOffset": 1048528,
      "componentType": 5126,
      "count": 65533,
      "max": [
        0.028089404106140137,
        0.0
      ],
      "min": [
        -1.2093452215194702,
        0.0
      ],
      "type": "VEC2"
    },
    {
      "bufferView": 0,
      "componentType": 5125,
      "count": 229056,
      "type": "SCALAR"
    },
    {
      "bufferView": 2,
      "byteOffset": 1572792,
      "componentType": 5126,
      "count": 65532,
      "max": [
        17.886014938354492,
        8.598291397094727,
        4.340041160583496
      ],
      "min": [
        -10.113931655883789,
        -12.462970733642578,
        -0.7467483878135681
      ],
      "type": "VEC3"
    },
    {
      "bufferView": 2,
      "byteOffset": 2359176,
      "componentType": 5126,
      "count": 65532,
      "max": [
        0.999988853931427,
        0.9999933838844299,
        0.9999998807907104
      ],
      "min": [
        -0.9999812841415405,
        -0.9999884366989136,
        -0.9999994039535522
      ],
      "type": "VEC3"
    },
    {
      "bufferView": 1,
      "byteOffset": 1572792,
      "componentType": 5126,
      "count": 65532,
      "max": [
        0.982051432132721,
        0.9214841723442078
      ],
      "min": [
        0.0011157095432281494,
        0.001142013818025589
      ],
      "type": "VEC2"
    },
    {
      "bufferView": 1,
      "byteOffset": 2097048,
      "componentType": 5126,
      "count": 65532,
      "max": [
        0.0,
        0.0
      ],
      "min": [
        0.0,
        0.0
      ],
      "type": "VEC2"
    },
    {
      "bufferView": 1,
      "byteOffset": 2621304,
      "componentType": 5126,
      "count": 65532,
      "max": [
        0.0,
        0.0
      ],
      "min": [
        0.0,
        0.0
      ],
      "type": "VEC2"
    },
    {
      "bufferView": 0,
      "byteOffset": 916224,
      "componentType": 5125,
      "count": 215103,
      "type": "SCALAR"
    },
    {
      "bufferView": 2,
      "byteOffset": 3145560,
      "componentType": 5126,
      "count": 65533,
      "max": [
        18.3737850189209,
        8.553305625915527,
        7.101210594177246
      ],
      "min": [
        -10.56322193145752,
        -12.46133041381836,
        -0.6278835535049438
      ],
      "type": "VEC3"
    },
    {
      "bufferView": 2,
      "byteOffset": 3931956,
      "componentType": 5126,
      "count": 65533,
      "max": [
        0.9999552965164185,
        0.9999920725822449,
        0.9999979734420776
      ],
      "min": [
        -0.9999825954437256,
        -0.9999420046806335,
        -0.9999942183494568
      ],
      "type": "VEC3"
    },
    {
      "bufferView": 1,
      "byteOffset": 3145560,
      "componentType": 5126,
      "count": 65533,
      "max": [
        0.9988861680030823,
        0.9992619752883911
      ],
      "min": [
        0.00027370741008780897,
        0.0011127537582069635
      ],
      "type": "VEC2"
    },
    {
      "bufferView": 1,
      "byteOffset": 3669824,
      "componentType": 5126,
      "count": 65533,
      "max": [
        15.339056015014648,
        6.018425941467285
      ],
      "min": [
        -7.091921329498291,
        -10.334549903869629
      ],
      "type": "VEC2"
    },
    {
      "bufferView": 1,
      "byteOffset": 4194088,
      "componentType": 5126,
      "count": 65533,
      "max": [
        0.0,
        0.0
      ],
      "min": [
        -1.2093452215194702,
        0.0
      ],
      "type": "VEC2"
    },
    {
      "bufferView": 0,
      "byteOffset": 1776636,
      "componentType": 5125,
      "count": 154089,
      "type": "SCALAR"
    },
    {
      "bufferView": 2,
      "byteOffset": 4718352,
      "componentType": 5126,
      "count": 65532,
      "max": [
        18.385353088378906,
        8.56482982635498,
        4.397714138031006
      ],
      "min": [
        -10.564923286437988,
        -12.461211204528809,
        -0.7048627734184265
      ],
      "type": "VEC3"
    },
    {
      "bufferView": 2,
      "byteOffset": 5504736,
      "componentType": 5126,
      "count": 65532,
      "max": [
        0.9999945759773254,
        0.9999637007713318,
        0.9999957084655762
      ],
      "min": [
        -0.999857485294342,
        -0.9999933242797852,
        -0.9999749064445496
      ],
      "type": "VEC3"
    },
    {
      "bufferView": 1,
      "byteOffset": 4718352,
      "componentType": 5126,
      "count": 65532,
      "max": [
        0.9988272786140442,
        0.9400091767311096
      ],
      "min": [
        0.0011244714260101318,
        0.0011124610900878906
      ],
      "type": "VEC2"
    },
    {
      "bufferView": 1,
      "byteOffset": 5242608,
      "componentType": 5126,
      "count": 65532,
      "max": [
        0.0,
        0.0
      ],
      "min": [
        0.0,
        0.0
      ],
      "type": "VEC2"
    },
    {
      "bufferView": 1,
      "byteOffset": 5766864,
      "componentType": 5126,
      "count": 65532,
      "max": [
        0.0,
        0.0
      ],
      "min": [
        0.0,
        0.0
      ],
      "type": "VEC2"
    },
    {
      "bufferView": 0,
      "byteOffset": 2392992,
      "componentType": 5125,
      "count": 138114,
      "type": "SCALAR"
    },
    {
      "bufferView": 2,
      "byteOffset": 6291120,
      "componentType": 5126,
      "count": 65534,
      "max": [
        18.1077880859375,
        8.069960594177246,
        4.134886741638184
      ],
      "min": [
        -8.822423934936523,
        -12.462970733642578,
        -0.634013295173645
      ],
      "type": "VEC3"
    },
    {
      "bufferView": 2,
      "byteOffset": 7077528,
      "componentType": 5126,
      "count": 65534,
      "max": [
        0.9999904632568359,
        0.9999787211418152,
        0.9999908804893494
      ],
      "min": [
        -0.9999956488609314,
        -0.9999797344207764,
        -0.9992300271987915
      ],
      "type": "VEC3"
    },
    {
      "bufferView": 1,
      "byteOffset": 6291120,
      "componentType": 5126,
      "count": 65534,
      "max": [
        0.998538076877594,
        0.9406846761703491
      ],
      "min": [
        0.00111558404751122,
        0.0011153010418638587
      ],
      "type": "VEC2"
    },
    {
      "bufferView": 1,
      "byteOffset": 6815392,
      "componentType": 5126,
      "count": 65534,
      "max": [
        0.0,
        0.0
      ],
      "min": [
        0.0,
        0.0
      ],
      "type": "VEC2"
    },
    {
      "bufferView": 1,
      "byteOffset": 7339664,
      "componentType": 5126,
      "count": 65534,
      "max": [
        0.0,
        0.0
      ],
      "min": [
        0.0,
        0.0
      ],
      "type": "VEC2"
    },
    {
      "bufferView": 0,
      "byteOffset": 2945448,
      "componentType": 5125,
      "count": 117528,
      "type": "SCALAR"
    },
    {
      "bufferView": 2,
      "byteOffset": 7863936,
      "componentType": 5126,
      "count": 65534,
      "max": [
        18.22547721862793,
        8.079588890075684,
        4.442030429840088
      ],
      "min": [
        -1.0128374099731445,
        -12.460322380065918,
        -0.634013295173645
      ],
      "type": "VEC3"
    },
    {
      "bufferView": 2,
      "byteOffset": 8650344,
      "componentType": 5126,
      "count": 65534,
      "max": [
        0.9999489784240723,
        0.9999744296073914,
        0.9999951720237732
      ],
      "min": [
        -0.9999731183052063,
        -0.9999884366989136,
        -0.9999803304672241
      ],
      "type": "VEC3"
    },
    {
      "bufferView": 1,
      "byteOffset": 7863936,
      "componentType": 5126,
      "count": 65534,
      "max": [
        0.9988526105880737,
        0.9433808326721191
      ],
      "min": [
        0.0011131614446640015,
        0.001112817320972681
      ],
      "type": "VEC2"
    },
    {
      "bufferView": 1,
      "byteOffset": 8388208,
      "componentType": 5126,
      "count": 65534,
      "max": [
        0.0,
        0.0
      ],
      "min": [
        0.0,
        0.0
      ],
      "type": "VEC2"
    },
    {
      "bufferView": 1,
      "byteOffset": 8912480,
      "componentType": 5126,
      "count": 65534,
      "max": [
        0.0,
        0.0
      ],
      "min": [
        0.0,
        0.0
      ],
      "type": "VEC2"
    },
    {
      "bufferView": 0,
      "byteOffset": 3415560,
      "componentType": 5125,
      "count": 105600,
      "type": "SCALAR"
    },
    {
      "bufferView": 2,
      "byteOffset": 9436752,
      "componentType": 5126,
      "count": 65532,
      "max": [
        15.985703468322754,
        8.470613479614258,
        4.308542251586914
      ],
      "min": [
        -10.562631607055664,
        -12.447111129760742,
        -0.6094014048576355
      ],
      "type": "VEC3"
    },
    {
      "bufferView": 2,
      "byteOffset": 10223136,
      "componentType": 5126,
      "count": 65532,
      "max": [
        0.9999973177909851,
        0.9999725818634033,
        0.9999971985816956
      ],
      "min": [
        -0.9999383091926575,
        -0.9999212622642517,
        -0.9999825358390808
      ],
      "type": "VEC3"
    },
    {
      "bufferView": 1,
      "byteOffset": 9436752,
      "componentType": 5126,
      "count": 65532,
      "max": [
        0.9988830089569092,
        0.9393302202224731
      ],
      "min": [
        0.001113880891352892,
        0.001112717087380588
      ],
      "type": "VEC2"
    },
    {
      "bufferView": 1,
      "byteOffset": 9961008,
      "componentType": 5126,
      "count": 65532,
      "max": [
        0.0,
        0.0
      ],
      "min": [
        0.0,
        0.0
      ],
      "type": "VEC2"
    },
    {
      "bufferView": 1,
      "byteOffset": 10485264,
      "componentType": 5126,
      "count": 65532,
      "max": [
        0.0,
        0.0
      ],
      "min": [
        0.0,
        0.0
      ],
      "type": "VEC2"
    },
    {
      "bufferView": 0,
      "byteOffset": 3837960,
      "componentType": 5125,
      "count": 104148,
      "type": "SCALAR"
    },
    {
      "bufferView": 2,
      "byteOffset": 11009520,
      "componentType": 5126,
      "count": 65532,
      "max": [
        18.363540649414063,
        8.556546211242676,
        4.40261173248291
      ],
      "min": [
        -10.561042785644531,
        -12.413751602172852,
        -0.7467483878135681
      ],
      "type": "VEC3"
    },
    {
      "bufferView": 2,
      "byteOffset": 11795904,
      "componentType": 5126,
      "count": 65532,
      "max": [
        0.9999814033508301,
        0.9999755620956421,
        0.9999957084655762
      ],
      "min": [
        -0.9999938607215881,
        -0.9999274015426636,
        -0.9997727274894714
      ],
      "type": "VEC3"
    },
    {
      "bufferView": 1,
      "byteOffset": 11009520,
      "componentType": 5126,
      "count": 65532,
      "max": [
        0.9987053871154785,
        0.9407906532287598
      ],
      "min": [
        0.0011143917217850685,
        0.0011140108108520508
      ],
      "type": "VEC2"
    },
    {
      "bufferView": 1,
      "byteOffset": 11533776,
      "componentType": 5126,
      "count": 65532,
      "max": [
        0.0,
        0.0
      ],
      "min": [
        0.0,
        0.0
      ],
      "type": "VEC2"
    },
    {
      "bufferView": 1,
      "byteOffset": 12058032,
      "componentType": 5126,
      "count": 65532,
      "max": [
        0.0,
        0.0
      ],
      "min": [
        0.0,
        0.0
      ],
      "type": "VEC2"
    },
    {
      "bufferView": 0,
      "byteOffset": 4254552,
      "componentType": 5125,
      "count": 109155,
      "type": "SCALAR"
    },
    {
      "bufferView": 2,
      "byteOffset": 12582288,
      "componentType": 5126,
      "count": 56373,
      "max": [
        18.385353088378906,
        8.56482982635498,
        4.404829502105713
      ],
      "min": [
        -10.56222152709961,
        -12.46133041381836,
        -0.6673123240470886
      ],
      "type": "VEC3"
    },
    {
      "bufferView": 2,
      "byteOffset": 13258764,
      "componentType": 5126,
      "count": 56373,
      "max": [
        0.9999250769615173,
        0.9999591708183289,
        0.9999957084655762
      ],
      "min": [
        -0.9999932646751404,
        -0.999998152256012,
        -0.9999433755874634
      ],
      "type": "VEC3"
    },
    {
      "bufferView": 1,
      "byteOffset": 12582288,
      "componentType": 5126,
      "count": 56373,
      "max": [
        0.9986619353294373,
        0.9427170753479004
      ],
      "min": [
        0.0011174380779266357,
        0.0011126542231068015
      ],
      "type": "VEC2"
    },
    {
      "bufferView": 1,
      "byteOffset": 13033272,
      "componentType": 5126,
      "count": 56373,
      "max": [
        0.0,
        0.0
      ],
      "min": [
        0.0,
        0.0
      ],
      "type": "VEC2"
    },
    {
      "bufferView": 1,
      "byteOffset": 13484256,
      "componentType": 5126,
      "count": 56373,
      "max": [
        0.0,
        0.0
      ],
      "min": [
        0.0,
        0.0
      ],
      "type": "VEC2"
    },
    {
      "bufferView": 0,
      "byteOffset": 4691172,
      "componentType": 5125,
      "count": 63423,
      "type": "SCALAR"
    },
    {
      "bufferView": 2,
      "byteOffset": 13935240,
      "componentType": 5126,
      "count": 448,
      "max": [
        10.980546951293945,
        5.640004634857178,
        21.990318298339844
      ],
      "min": [
        -10.028060913085938,
        -5.987626552581787,
        -3.028986930847168
      ],
      "type": "VEC3"
    },
    {
      "bufferView": 2,
      "byteOffset": 13940616,
      "componentType": 5126,
      "count": 448,
      "max": [
        0.9805442690849304,
        0.9810561537742615,
        0.23511983454227448
      ],
      "min": [
        -0.9805046916007996,
        -0.9810752272605896,
        -0.16335806250572205
      ],
      "type": "VEC3"
    },
    {
      "bufferView": 1,
      "byteOffset": 13935240,
      "componentType": 5126,
      "count": 448,
      "max": [
        0.9974135160446167,
        0.9578584432601929
      ],
      "min": [
        0.002586561720818281,
        0.002586568705737591
      ],
      "type": "VEC2"
    },
    {
      "bufferView": 0,
      "byteOffset": 4944864,
      "componentType": 5125,
      "count": 672,
      "type": "SCALAR"
    }
  ],
  "asset": {
    "extras": {
      "author": "Shahriar Shahrabi (https://sketchfab.com/shahriyarshahrabi)",
      "license": "CC-BY-4.0 (http://creativecommons.org/licenses/by/4.0/)",
      "source": "https://sketchfab.com/3d-models/underwater-9826e042e3d94f46980b0b88f7caa7f8",
      "title": "Underwater"
    },
    "generator": "Sketchfab-15.50.0",
    "version": "2.0"
  },
  "bufferViews": [
    {
      "buffer": 0,
      "byteLength": 4947552,
      "name": "floatBufferViews",
      "target": 34963
    },
    {
      "buffer": 0,
      "byteLength": 13938824,
      "byteOffset": 4947552,
      "byteStride": 8,
      "name": "floatBufferViews",
      "target": 34962
    },
    {
      "buffer": 0,
      "byteLength": 13945992,
      "byteOffset": 18886376,
      "byteStride": 12,
      "name": "floatBufferViews",
      "target": 34962
    }
  ],
  "buffers": [
    {
      "byteLength": 32832368,
      "uri": "scene.bin"
    }
  ],
  "extensionsUsed": [
    "KHR_materials_unlit"
  ],
  "images": [
    {
      "uri": "textures/MainMat_baseColor.jpeg"
    },
    {
      "uri": "textures/Material.008_baseColor.png"
    }
  ],
  "materials": [
    {
      "doubleSided": true,
      "extensions": {
        "KHR_materials_unlit": {}
      },
      "name": "MainMat",
      "pbrMetallicRoughness": {
        "baseColorTexture": {
          "index": 0
        },
        "metallicFactor": 0.0
      }
    },
    {
      "alphaMode": "BLEND",
      "doubleSided": true,
      "extensions": {
        "KHR_materials_unlit": {}
      },
      "name": "Material.008",
      "pbrMetallicRoughness": {
        "baseColorFactor": [
          0.03497935666666928,
          0.18941773913423554,
          0.14796002120748952,
          0.3772640600325124
        ],
        "baseColorTexture": {
          "index": 1
        },
        "metallicFactor": 0.0
      }
    }
  ],
  "meshes": [
    {
      "name": "AllCombinedV2_MainMat_0",
      "primitives": [
        {
          "attributes": {
            "NORMAL": 1,
            "POSITION": 0,
            "TEXCOORD_0": 2,
            "TEXCOORD_1": 3,
            "TEXCOORD_2": 4
          },
          "indices": 5,
          "material": 0,
          "mode": 4
        }
      ]
    },
    {
      "name": "AllCombinedV2_MainMat_0",
      "primitives": [
        {
          "attributes": {
            "NORMAL": 7,
            "POSITION": 6,
            "TEXCOORD_0": 8,
            "TEXCOORD_1": 9,
            "TEXCOORD_2": 10
          },
          "indices": 11,
          "material": 0,
          "mode": 4
        }
      ]
    },
    {
      "name": "AllCombinedV2_MainMat_0",
      "primitives": [
        {
          "attributes": {
            "NORMAL": 13,
            "POSITION": 12,
            "TEXCOORD_0": 14,
            "TEXCOORD_1": 15,
            "TEXCOORD_2": 16
          },
          "indices": 17,
          "material": 0,
          "mode": 4
        }
      ]
    },
    {
      "name": "AllCombinedV2_MainMat_0",
      "primitives": [
        {
          "attributes": {
            "NORMAL": 19,
            "POSITION": 18,
            "TEXCOORD_0": 20,
            "TEXCOORD_1": 21,
            "TEXCOORD_2": 22
          },
          "indices": 23,
          "material": 0,
          "mode": 4
        }
      ]
    },
    {
      "name": "AllCombinedV2_MainMat_0",
      "primitives": [
        {
          "attributes": {
            "NORMAL": 25,
            "POSITION": 24,
            "TEXCOORD_0": 26,
            "TEXCOORD_1": 27,
            "TEXCOORD_2": 28
          },
          "indices": 29,
          "material": 0,
          "mode": 4
        }
      ]
    },
    {
      "name": "AllCombinedV2_MainMat_0",
      "primitives": [
        {
          "attributes": {
            "NORMAL": 31,
            "POSITION": 30,
            "TEXCOORD_0": 32,
            "TEXCOORD_1": 33,
            "TEXCOORD_2": 34
          },
          "indices": 35,
          "material": 0,
          "mode": 4
        }
      ]
    },
    {
      "name": "AllCombinedV2_MainMat_0",
      "primitives": [
        {
          "attributes": {
            "NORMAL": 37,
            "POSITION": 36,
            "TEXCOORD_0": 38,
            "TEXCOORD_1": 39,
            "TEXCOORD_2": 40
          },
          "indices": 41,
          "material": 0,
          "mode": 4
        }
      ]
    },
    {
      "name": "AllCombinedV2_MainMat_0",
      "primitives": [
        {
          "attributes": {
            "NORMAL": 43,
            "POSITION": 42,
            "TEXCOORD_0": 44,
            "TEXCOORD_1": 45,
            "TEXCOORD_2": 46
          },
          "indices": 47,
          "material": 0,
          "mode": 4
        }
      ]
    },
    {
      "name": "AllCombinedV2_MainMat_0",
      "primitives": [
        {
          "attributes": {
            "NORMAL": 49,
            "POSITION": 48,
            "TEXCOORD_0": 50,
            "TEXCOORD_1": 51,
            "TEXCOORD_2": 52
          },
          "indices": 53,
          "material": 0,
          "mode": 4
        }
      ]
    },
    {
      "name": "LightPaths.001_Material.008_0",
      "primitives": [
        {
          "attributes": {
            "NORMAL": 55,
            "POSITION": 54,
            "TEXCOORD_0": 56
          },
          "indices": 57,
          "material": 1,
          "mode": 4
        }
      ]
    }
  ],
  "nodes": [
    {
      "children": [
        1
      ],
      "matrix": [
        1.0,
        0.0,
        0.0,
        0.0,
        0.0,
        0.004840006120502727,
        0.9999882578849792,
        0.0,
        0.0,
        -0.9999882578849792,
        0.004840006120502727,
        0.0,
        0.0,
        0.0,
        0.0,
        1.0
      ],
      "name": "Sketchfab_model"
    },
    {
      "children": [
        2
      ],
      "matrix": [
        0.009999999776482582,
        0.0,
        0.0,
        0.0,
        0.0,
        -0.009999999776482582,
        0.0,
        0.0,
        0.0,
        0.0,
        -0.009999999776482582,
        0.0,
        0.0,
        0.0,
        0.0,
        1.0
      ],
      "name": "1768d4a3bc09403cae689c7902389e5a.fbx"
    },
    {
      "children": [
        3,
        13
      ],
      "name": "RootNode"
    },
    {
      "children": [
        4,
        5,
        6,
        7,
        8,
        9,
        10,
        11,
        12
      ],
      "matrix": [
        100.0,
        0.0,
        0.0,
        0.0,
        0.0,
        100.0,
        0.0,
        0.0,
        0.0,
        0.0,
        100.0,
        0.0,
        0.0,
        0.0,
        0.0,
        1.0
      ],
      "name": "AllCombinedV2"
    },
    {
      "mesh": 0,
      "name": "AllCombinedV2_MainMat_0"
    },
    {
      "mesh": 1,
      "name": "AllCombinedV2_MainMat_0"
    },
    {
      "mesh": 2,
      "name": "AllCombinedV2_MainMat_0"
    },
    {
      "mesh": 3,
      "name": "AllCombinedV2_MainMat_0"
    },
    {
      "mesh": 4,
      "name": "AllCombinedV2_MainMat_0"
    },
    {
      "mesh": 5,
      "name": "AllCombinedV2_MainMat_0"
    },
    {
      "mesh": 6,
      "name": "AllCombinedV2_MainMat_0"
    },
    {
      "mesh": 7,
      "name": "AllCombinedV2_MainMat_0"
    },
    {
      "mesh": 8,
      "name": "AllCombinedV2_MainMat_0"
    },
    {
      "children": [
        14
      ],
      "matrix": [
        100.0,
        -4.819047956025227e-16,
        -4.60093606220857e-15,
        0.0,
        -4.819035258772817e-16,
        97.82969671118516,
        -20.7207731853212,
        0.0,
        4.600936195200175e-15,
        20.7207731853212,
        97.82969671118516,
        0.0,
        362.8509521484375,
        -277.4566650390625,
        27.315378189086914,
        1.0
      ],
      "name": "LightPaths.001"
    },
    {
      "mesh": 9,
      "name": "LightPaths.001_Material.008_0"
    }
  ],
  "samplers": [
    {
      "magFilter": 9729,
      "minFilter": 9987,
      "wrapS": 10497,
      "wrapT": 10497
    }
  ],
  "scene": 0,
  "scenes": [
    {
      "name": "Sketchfab_Scene",
      "nodes": [
        0
      ]
    }
  ],
  "textures": [
    {
      "sampler": 0,
      "source": 0
    },
    {
      "sampler": 0,
      "source": 1
    }
  ]
}
