{
  "accessors": [
    {
      "bufferView": 2,
      "componentType": 5126,
      "count": 1547,
      "max": [
        1.7542999982833862,
        1.6162400245666504,
        5.5578999519348145
      ],
      "min": [
        -1.7542999982833862,
        -1.6162400245666504,
        0.0
      ],
      "type": "VEC3"
    },
    {
      "bufferView": 2,
      "byteOffset": 18564,
      "componentType": 5126,
      "count": 1547,
      "max": [
        0.9999534487724304,
        0.9989023804664612,
        0.9999951124191284
      ],
      "min": [
        -0.9999850988388062,
        -0.9995017647743225,
        -0.996881902217865
      ],
      "type": "VEC3"
    },
    {
      "bufferView": 1,
      "componentType": 5126,
      "count": 1547,
      "max": [
        0.9866459965705872,
        0.9947500228881836
      ],
      "min": [
        0.014352000318467617,
        0.009353999979794025
      ],
      "type": "VEC2"
    },
    {
      "bufferView": 0,
      "componentType": 5125,
      "count": 5844,
      "type": "SCALAR"
    },
    {
      "bufferView": 2,
      "byteOffset": 37128,
      "componentType": 5126,
      "count": 292,
      "max": [
        1.1622400283813477,
        0.9936599731445313,
        2.9566800594329834
      ],
      "min": [
        -1.5935399532318115,
        -1.4783400297164917,
        0.4655799865722656
      ],
      "type": "VEC3"
    },
    {
      "bufferView": 2,
      "byteOffset": 40632,
      "componentType": 5126,
      "count": 292,
      "max": [
        0.9962372183799744,
        0.9908234477043152,
        0.9973797798156738
      ],
      "min": [
        -0.9921054840087891,
        -0.9980654716491699,
        -0.9982205033302307
      ],
      "type": "VEC3"
    },
    {
      "bufferView": 1,
      "byteOffset": 12376,
      "componentType": 5126,
      "count": 292,
      "max": [
        0.9964339733123779,
        0.38944101333618164
      ],
      "min": [
        0.6309880018234253,
        0.03692299872636795
      ],
      "type": "VEC2"
    },
    {
      "bufferView": 0,
      "byteOffset": 23376,
      "componentType": 5125,
      "count": 1008,
      "type": "SCALAR"
    }
  ],
  "asset": {
    "extras": {
      "author": "StinkySkunk12 (https://sketchfab.com/Bearfnf)",
      "license": "SKETCHFAB Standard (https://sketchfab.com/licenses)",
      "source": "https://sketchfab.com/3d-models/sponge-bob-hero-pants-sponge-bobs-house-9f83cb020bab4263b52024e58b2a0bd3",
      "title": "Sponge Bob Hero Pants Sponge Bob's House"
    },
    "generator": "Sketchfab-16.95.0",
    "version": "2.0"
  },
  "bufferViews": [
    {
      "buffer": 0,
      "byteLength": 27408,
      "name": "floatBufferViews",
      "target": 34963
    },
    {
      "buffer": 0,
      "byteLength": 14712,
      "byteOffset": 27408,
      "byteStride": 8,
      "name": "floatBufferViews",
      "target": 34962
    },
    {
      "buffer": 0,
      "byteLength": 44136,
      "byteOffset": 42120,
      "byteStride": 12,
      "name": "floatBufferViews",
      "target": 34962
    }
  ],
  "buffers": [
    {
      "byteLength": 86256,
      "uri": "scene.bin"
    }
  ],
  "images": [
    {
      "uri": "textures/MAT_Spongebob_house_baseColor.png"
    },
    {
      "uri": "textures/MAT_Squidward_house_baseColor.png"
    }
  ],
  "materials": [
    {
      "doubleSided": true,
      "name": "MAT_Spongebob_house",
      "pbrMetallicRoughness": {
        "baseColorTexture": {
          "index": 0
        },
        "metallicFactor": 0.0,
        "roughnessFactor": 0.6239396906913606
      }
    },
    {
      "doubleSided": true,
      "name": "MAT_Squidward_house",
      "pbrMetallicRoughness": {
        "baseColorTexture": {
          "index": 1
        },
        "metallicFactor": 0.0,
        "roughnessFactor": 0.6239396906913606
      }
    }
  ],
  "meshes": [
    {
      "name": "Object_0",
      "primitives": [
        {
          "attributes": {
            "NORMAL": 1,
            "POSITION": 0,
            "TEXCOORD_0": 2
          },
          "indices": 3,
          "material": 0,
          "mode": 4
        }
      ]
    },
    {
      "name": "Object_1",
      "primitives": [
        {
          "attributes": {
            "NORMAL": 5,
            "POSITION": 4,
            "TEXCOORD_0": 6
          },
          "indices": 7,
          "material": 1,
          "mode": 4
        }
      ]
    }
  ],
  "nodes": [
    {
      "children": [
        1
      ],
      "matrix": [
        1.0,
        0.0,
        0.0,
        0.0,
        0.0,
        2.220446049250313e-16,
        -1.0,
        0.0,
        0.0,
        1.0,
        2.220446049250313e-16,
        0.0,
        0.0,
        0.0,
        0.0,
        1.0
      ],
      "name": "Sketchfab_model"
    },
    {
      "children": [
        2,
        3
      ],
      "name": "MSH_SpongeBobHouse.obj.cleaner.materialmerger.gles"
    },
    {
      "mesh": 0,
      "name": "Object_2"
    },
    {
      "mesh": 1,
      "name": "Object_3"
    }
  ],
  "samplers": [
    {
      "magFilter": 9729,
      "minFilter": 9987,
      "wrapS": 10497,
      "wrapT": 10497
    }
  ],
  "scene": 0,
  "scenes": [
    {
      "name": "Sketchfab_Scene",
      "nodes": [
        0
      ]
    }
  ],
  "textures": [
    {
      "sampler": 0,
      "source": 0
    },
    {
      "sampler": 0,
      "source": 1
    }
  ]
}
